<svg id="self_paced_copy" data-name="self paced copy" xmlns="http://www.w3.org/2000/svg" xmlns:xlink="http://www.w3.org/1999/xlink" viewBox="0 0 197 241.44"><defs><style>.cls-1{fill:#fff;}.cls-2{fill:url(#linear-gradient);}.cls-3,.cls-5,.cls-6{fill:#ff7300;}.cls-4{fill:url(#radial-gradient);}.cls-5{fill-rule:evenodd;}.cls-6{font-size:11.1px;font-family:Roboto-Bold, Roboto;font-weight:700;letter-spacing:0.1em;}</style><linearGradient id="linear-gradient" x1="97.61" y1="170.65" x2="97.61" y2="240.13" gradientUnits="userSpaceOnUse"><stop offset="0" stop-color="#999"/><stop offset="1" stop-color="#ccc"/></linearGradient><radialGradient id="radial-gradient" cx="131.82" cy="-21.22" r="204.49" gradientUnits="userSpaceOnUse"><stop offset="0.01" stop-color="#999"/><stop offset="0.25" stop-color="#aaa"/><stop offset="0.63" stop-color="#ccc"/></radialGradient></defs><title>wso2-certified-identity-server-developer-logo-v5</title><circle class="cls-1" cx="97.81" cy="97.97" r="84.22"/><path class="cls-2" d="M160.05,172.37a96.62,96.62,0,0,1-124.88-.21v64.15l61.51-28.95,62.79,28.95Z"/><path class="cls-3" d="M171.87,106.2a75.64,75.64,0,0,1-150.53-1.08"/><path class="cls-1" d="M21.34,105.12q-.32-3.45-.32-7a75.64,75.64,0,0,1,151.27,0,76.71,76.71,0,0,1-.42,8.06"/><path class="cls-3" d="M21.87,105.19A75.59,75.59,0,0,0,97,173.64c39,0,71.23-30.77,75.1-68.78"/><path class="cls-4" d="M97.73,7.51a90.82,90.82,0,1,0,90.82,90.82A90.82,90.82,0,0,0,97.73,7.51ZM97,179.64A81.43,81.43,0,0,1,15.54,98.15h0A81.49,81.49,0,1,1,97,179.64Z"/><path class="cls-5" d="M112.81,64.59a9,9,0,1,0-9-9A9,9,0,0,0,112.81,64.59Z"/><polygon class="cls-1" points="116.48 60.59 112.82 51.67 110.26 57.36 103.91 57.34 103.91 56.12 109.47 56.13 112.87 48.58 116.64 57.78 118.16 55.06 121.79 55.05 121.79 56.27 118.88 56.28 116.48 60.59"/><polygon class="cls-3" points="91.43 46.52 89.96 46.52 84.56 60.31 79.12 45.56 73.36 60.28 68.46 46.52 66.22 46.52 73.28 65.84 79.07 51.12 84.49 65.85 91.43 48.41 92.19 46.52 91.43 46.52"/><path class="cls-3" d="M100.82,56.33a13,13,0,0,0-2.89-1.79l-.52-.25-.5-.22a22.47,22.47,0,0,1-2.31-1.34,2.11,2.11,0,0,1-.91-1.85,2.47,2.47,0,0,1,.92-2,3.44,3.44,0,0,1,2.24-.75,3.16,3.16,0,0,1,1.47.32,3.72,3.72,0,0,1,1.15,1.08l.2.3a1.33,1.33,0,0,1,.22.28l1.62-1.05a5.83,5.83,0,0,0-2-2.14,4.89,4.89,0,0,0-2.57-.72,5.54,5.54,0,0,0-3.83,1.32,4.34,4.34,0,0,0-1.49,3.4A3.62,3.62,0,0,0,93,54a13.84,13.84,0,0,0,2.89,1.75l.34.17.33.13a22.15,22.15,0,0,1,2.53,1.47,2.38,2.38,0,0,1,1,2.12,3.56,3.56,0,0,1-1,2.65,3.66,3.66,0,0,1-2.69,1.07A3.34,3.34,0,0,1,94,62.42a4.85,4.85,0,0,1-1.32-2.53l-1.24.38-.75.23a7.62,7.62,0,0,0,.75,2A5.56,5.56,0,0,0,92.68,64a6.06,6.06,0,0,0,7.81-.41,5.39,5.39,0,0,0,1.69-4A3.94,3.94,0,0,0,100.82,56.33Z"/><path d="M120.24,48.31a10.28,10.28,0,0,0-7.39-3h-.13a10.13,10.13,0,0,0-5.16,1.38,10,10,0,0,0-3.76,3.82,10.54,10.54,0,0,0-1.38,5.28,9.9,9.9,0,0,0,3,7.3,10.06,10.06,0,0,0,7.4,3h0a10.31,10.31,0,0,0,10.4-10.4A10,10,0,0,0,120.24,48.31ZM120.12,60a7.91,7.91,0,0,1-3.05,3.05,8.45,8.45,0,0,1-4.22,1.12h0a8.3,8.3,0,0,1-8.33-8.39,8.61,8.61,0,0,1,1.1-4.31,8.25,8.25,0,0,1,3.07-3.08,8.06,8.06,0,0,1,4.16-1.15h0A8.36,8.36,0,0,1,117,48.4a8.1,8.1,0,0,1,3.08,3,8.3,8.3,0,0,1,1.1,4.26A8.51,8.51,0,0,1,120.12,60Z"/><path d="M124,55.07a5.53,5.53,0,0,1,1.49-.2,4.5,4.5,0,0,1,3.39,1.36,4.45,4.45,0,0,1,1.3,3.2,4.87,4.87,0,0,1-.62,2.42,17.27,17.27,0,0,1-2.41,3.07L123.32,69h7v1.47H120l5.82-6.29a19.43,19.43,0,0,0,2.3-2.81,3.75,3.75,0,0,0,.53-1.93,3,3,0,0,0-1-2.21,3.3,3.3,0,0,0-2.35-.93,3.37,3.37,0,0,0-1.44.29,10.38,10.38,0,0,0,0-1.12C124,55.35,124,55.21,124,55.07Z"/><path d="M61.17,87.83a4.16,4.16,0,0,1-1.42,3A5,5,0,0,1,56.39,92a4.46,4.46,0,0,1-3.6-1.54,6.31,6.31,0,0,1-1.31-4.22v-.73a7.17,7.17,0,0,1,.6-3,4.53,4.53,0,0,1,1.73-2,5.39,5.39,0,0,1,5.92.4,4.53,4.53,0,0,1,1.46,3.09H58.74a2.5,2.5,0,0,0-.64-1.66,2.37,2.37,0,0,0-1.68-.52,2.07,2.07,0,0,0-1.83.87A4.91,4.91,0,0,0,54,85.35v.9a5.33,5.33,0,0,0,.58,2.81,2,2,0,0,0,1.85.89,2.39,2.39,0,0,0,1.69-.52,2.32,2.32,0,0,0,.64-1.6Z"/><path d="M71.18,86.64h-4.7v3.18H72v2H64V79.9h8v2h-5.5v2.83h4.7Z"/><path d="M79.09,87.44h-2v4.35H74.69V79.9h4.42a5,5,0,0,1,3.25.94,3.25,3.25,0,0,1,1.14,2.65,3.35,3.35,0,0,1-2.12,3.33L84,91.67v.12H81.32Zm-2-2h2A2,2,0,0,0,80.55,85a1.69,1.69,0,0,0,.5-1.29,1.78,1.78,0,0,0-.48-1.32,2,2,0,0,0-1.46-.48h-2Z"/><path d="M95.16,81.89H91.52v9.9H89.07v-9.9h-3.6v-2h9.69Z"/><path d="M100.41,91.79H98V79.9h2.45Z"/><path d="M111.09,86.93h-4.71v4.86h-2.45V79.9h7.74v2h-5.29V85h4.71Z"/><path d="M117,91.79H114.5V79.9H117Z"/><path d="M127.63,86.64h-4.7v3.18h5.51v2h-8V79.9h8v2h-5.5v2.83h4.7Z"/><path d="M131.14,91.79V79.9h3.65a5.59,5.59,0,0,1,2.81.71,4.92,4.92,0,0,1,1.93,2,6.19,6.19,0,0,1,.69,3v.54a6.14,6.14,0,0,1-.68,2.95,4.81,4.81,0,0,1-1.92,2,5.69,5.69,0,0,1-2.8.72Zm2.44-9.9v7.93h1.19a2.63,2.63,0,0,0,2.19-.94,4.19,4.19,0,0,0,.78-2.68v-.63a4.31,4.31,0,0,0-.75-2.75,2.66,2.66,0,0,0-2.2-.93Z"/><path class="cls-1" d="M43.84,125.9H42.12v-8.34h1.72Z"/><path class="cls-1" d="M46.31,125.9v-8.34h2.57a3.85,3.85,0,0,1,2,.49,3.42,3.42,0,0,1,1.36,1.41,4.4,4.4,0,0,1,.49,2.08v.38a4.36,4.36,0,0,1-.48,2.07,3.44,3.44,0,0,1-1.35,1.4,4,4,0,0,1-2,.51ZM48,119v5.57h.83a1.86,1.86,0,0,0,1.54-.66,2.92,2.92,0,0,0,.54-1.89v-.44a3,3,0,0,0-.52-1.93,1.88,1.88,0,0,0-1.54-.65Z"/><path class="cls-1" d="M59.83,122.28h-3.3v2.24H60.4v1.38H54.81v-8.34h5.58V119H56.53v2h3.3Z"/><path class="cls-1" d="M69.07,125.9H67.36L64,120.41v5.49H62.29v-8.34H64l3.35,5.49v-5.49h1.71Z"/><path class="cls-1" d="M77.57,119H75v7H73.29v-7H70.77v-1.39h6.8Z"/><path class="cls-1" d="M81.25,125.9H79.53v-8.34h1.72Z"/><path class="cls-1" d="M89.83,119H87.28v7H85.56v-7H83v-1.39h6.79Z"/><path class="cls-1" d="M94.66,121.31l1.74-3.75h1.88l-2.74,5.31v3H93.79v-3l-2.74-5.31h1.89Z"/><path class="cls-1" d="M108,123.71a.87.87,0,0,0-.34-.75,4.51,4.51,0,0,0-1.24-.55,7.82,7.82,0,0,1-1.41-.57,2.3,2.3,0,0,1-1.42-2.07,2,2,0,0,1,.38-1.2,2.39,2.39,0,0,1,1.09-.83,4.11,4.11,0,0,1,1.6-.3,3.64,3.64,0,0,1,1.59.33,2.51,2.51,0,0,1,1.09.91,2.37,2.37,0,0,1,.39,1.34h-1.72a1.12,1.12,0,0,0-.36-.89,1.5,1.5,0,0,0-1-.32,1.58,1.58,0,0,0-1,.27.84.84,0,0,0-.35.7.81.81,0,0,0,.41.68A4.88,4.88,0,0,0,107,121a5,5,0,0,1,2.13,1.09,2.19,2.19,0,0,1,.68,1.63,2,2,0,0,1-.82,1.69,3.6,3.6,0,0,1-2.21.62,4.34,4.34,0,0,1-1.75-.35,2.82,2.82,0,0,1-1.21-1,2.52,2.52,0,0,1-.41-1.42h1.72q0,1.38,1.65,1.38a1.59,1.59,0,0,0,1-.25A.79.79,0,0,0,108,123.71Z"/><path class="cls-1" d="M116.82,122.28h-3.29v2.24h3.87v1.38h-5.59v-8.34h5.58V119h-3.86v2h3.29Z"/><path class="cls-1" d="M122.37,122.84H121v3.06h-1.71v-8.34h3.09a3.48,3.48,0,0,1,2.28.66,2.24,2.24,0,0,1,.81,1.86,2.6,2.6,0,0,1-.37,1.42,2.58,2.58,0,0,1-1.12.91l1.8,3.41v.08h-1.84ZM121,121.45h1.39a1.4,1.4,0,0,0,1-.33,1.17,1.17,0,0,0,.36-.91,1.21,1.21,0,0,0-.34-.92,1.36,1.36,0,0,0-1-.34H121Z"/><path class="cls-1" d="M130.62,123.83l1.89-6.27h1.92l-2.91,8.34h-1.79l-2.89-8.34h1.91Z"/><path class="cls-1" d="M141.11,122.28h-3.3v2.24h3.87v1.38h-5.59v-8.34h5.58V119h-3.86v2h3.3Z"/><path class="cls-1" d="M146.66,122.84h-1.37v3.06h-1.72v-8.34h3.1a3.52,3.52,0,0,1,2.28.66,2.26,2.26,0,0,1,.8,1.86,2.52,2.52,0,0,1-.37,1.42,2.58,2.58,0,0,1-1.12.91l1.8,3.41v.08h-1.84Zm-1.37-1.39h1.38a1.43,1.43,0,0,0,1-.33,1.2,1.2,0,0,0,.35-.91,1.25,1.25,0,0,0-.33-.92,1.39,1.39,0,0,0-1-.34h-1.38Z"/><path class="cls-1" d="M61.61,141.9v-8.34h2.56a3.89,3.89,0,0,1,2,.49,3.49,3.49,0,0,1,1.36,1.41,4.4,4.4,0,0,1,.48,2.08v.38a4.48,4.48,0,0,1-.47,2.07,3.44,3.44,0,0,1-1.35,1.4,4,4,0,0,1-2,.51Zm1.72-7v5.57h.83a1.87,1.87,0,0,0,1.54-.66,3,3,0,0,0,.54-1.89v-.44a3,3,0,0,0-.53-1.93,1.87,1.87,0,0,0-1.54-.65Z"/><path class="cls-1" d="M75.13,138.28h-3.3v2.24H75.7v1.38H70.11v-8.34h5.58V135H71.83v2h3.3Z"/><path class="cls-1" d="M80.67,139.83l1.89-6.27h1.91l-2.9,8.34H79.78l-2.9-8.34h1.91Z"/><path class="cls-1" d="M91.16,138.28h-3.3v2.24h3.87v1.38H86.14v-8.34h5.58V135H87.86v2h3.3Z"/><path class="cls-1" d="M95.33,140.52H99v1.38H93.62v-8.34h1.71Z"/><path class="cls-1" d="M107.33,137.92a5,5,0,0,1-.43,2.15,3.32,3.32,0,0,1-1.25,1.44,3.69,3.69,0,0,1-3.71,0,3.3,3.3,0,0,1-1.26-1.42,4.83,4.83,0,0,1-.45-2.13v-.41a5.13,5.13,0,0,1,.44-2.17,3.41,3.41,0,0,1,1.26-1.44,3.67,3.67,0,0,1,3.7,0,3.41,3.41,0,0,1,1.26,1.44,5.11,5.11,0,0,1,.44,2.16Zm-1.74-.38a3.56,3.56,0,0,0-.47-2,1.54,1.54,0,0,0-1.34-.68,1.52,1.52,0,0,0-1.33.68,3.35,3.35,0,0,0-.48,2v.41a3.58,3.58,0,0,0,.47,2,1.51,1.51,0,0,0,1.35.7,1.5,1.5,0,0,0,1.33-.68,3.49,3.49,0,0,0,.47-2Z"/><path class="cls-1" d="M111.18,139v2.94h-1.72v-8.34h3.25a3.79,3.79,0,0,1,1.66.34,2.48,2.48,0,0,1,1.09,1,2.68,2.68,0,0,1,.39,1.44,2.39,2.39,0,0,1-.84,1.93,3.52,3.52,0,0,1-2.33.71Zm0-1.39h1.53a1.48,1.48,0,0,0,1-.33,1.14,1.14,0,0,0,.36-.91,1.29,1.29,0,0,0-1.36-1.38h-1.57Z"/><path class="cls-1" d="M122.92,138.28h-3.3v2.24h3.88v1.38h-5.59v-8.34h5.57V135h-3.86v2h3.3Z"/><path class="cls-1" d="M128.47,138.84H127.1v3.06h-1.72v-8.34h3.1a3.48,3.48,0,0,1,2.28.66,2.23,2.23,0,0,1,.8,1.86,2.34,2.34,0,0,1-1.49,2.33l1.81,3.41v.08H130Zm-1.37-1.39h1.39a1.42,1.42,0,0,0,1-.33,1.17,1.17,0,0,0,.36-.91,1.25,1.25,0,0,0-.34-.92,1.38,1.38,0,0,0-1-.34H127.1Z"/><rect class="cls-1" x="81.07" y="146.73" width="31.93" height="13.48"/><text class="cls-6" transform="translate(89.37 157.57)">V5</text></svg>